<mxfile host="app.diagrams.net" modified="2023-06-01T08:23:42.261Z" agent="Mozilla/5.0 (Windows NT 10.0; Win64; x64) AppleWebKit/537.36 (KHTML, like Gecko) Chrome/113.0.0.0 Safari/537.36" version="21.3.6" etag="AMBxHQEfjO-3t_FxSozJ" type="github">
  <diagram name="페이지-1" id="kV9rH1VHIlDl9gYv21mv">
    <mxGraphModel>
      <root>
        <mxCell id="0" />
        <mxCell id="1" parent="0" />
      </root>
    </mxGraphModel>
  </diagram>
</mxfile>
